<svg width="66" height="30" viewBox="0 0 66 30" fill="none" xmlns="http://www.w3.org/2000/svg">
<path d="M15.452 11.06H14.48V12.992C14.48 15.032 13.172 17.096 11.588 17.852L12.188 18.656C13.448 18.008 14.48 16.664 14.972 15.044C15.488 16.58 16.52 17.852 17.744 18.452L18.332 17.66C16.736 16.94 15.452 14.96 15.452 12.992V11.06ZM19.46 10.124V20.912H20.444V10.124H19.46ZM28.9271 15.392C27.3431 14.852 26.3111 13.52 26.3111 12.092V11.672H28.6871V10.88H22.9151V11.672H25.3271V12.104C25.3271 13.64 24.2471 15.032 22.6271 15.596L23.1431 16.376C24.4031 15.908 25.3751 14.96 25.8311 13.76C26.2991 14.864 27.2231 15.74 28.4231 16.16L28.9271 15.392ZM24.0191 17.984H30.0431V20.9H31.0271V17.192H24.0191V17.984ZM32.6231 12.956H31.0271V10.136H30.0431V16.616H31.0271V13.772H32.6231V12.956ZM36.8701 17.672C35.8981 17.672 35.1901 16.976 35.1901 16.016C35.1901 15.044 35.8981 14.348 36.8701 14.348C37.8541 14.348 38.5621 15.044 38.5621 16.016C38.5621 16.976 37.8541 17.672 36.8701 17.672ZM36.8701 13.532C35.3581 13.532 34.2661 14.564 34.2661 16.016C34.2661 17.48 35.3581 18.488 36.8701 18.488C38.4061 18.488 39.4981 17.48 39.4981 16.016C39.4981 14.564 38.4061 13.532 36.8701 13.532ZM37.3501 10.256H36.3661V11.852H33.6541V12.644H40.0021V11.852H37.3501V10.256ZM43.7701 14.552H42.0061V10.136H41.0221V20.888H42.0061V15.38H43.7701V14.552ZM45.3892 11.288V12.08H49.4332C49.2292 14.636 47.7892 16.7 44.8972 18.08L45.4252 18.884C49.0012 17.132 50.4292 14.396 50.4292 11.288H45.3892ZM52.6012 10.124V20.888H53.5852V10.124H52.6012Z" fill="#828282"/>
<rect x="0.5" y="0.5" width="65" height="29" rx="14.5" stroke="#828282"/>
</svg>
